<mxfile host="app.diagrams.net" modified="2022-10-06T02:57:51.845Z" agent="5.0 (Macintosh; Intel Mac OS X 10_15_7) AppleWebKit/605.1.15 (KHTML, like Gecko) Version/14.1.2 Safari/605.1.15" etag="SvynJrbJ5ovewEkGpiup" version="20.4.0" type="github">
  <diagram id="Dnxzxpzrur5TBMDrA5cr" name="Page-1">
    <mxGraphModel dx="622" dy="645" grid="1" gridSize="10" guides="1" tooltips="1" connect="1" arrows="1" fold="1" page="1" pageScale="1" pageWidth="850" pageHeight="1100" math="0" shadow="0">
      <root>
        <mxCell id="0" />
        <mxCell id="1" parent="0" />
        <mxCell id="Q-evfRpUln7bc_nMk59B-1" value="Customers" style="rounded=0;whiteSpace=wrap;html=1;" parent="1" vertex="1">
          <mxGeometry x="570" y="130" width="120" height="60" as="geometry" />
        </mxCell>
        <mxCell id="Q-evfRpUln7bc_nMk59B-4" value="Chefs" style="rounded=0;whiteSpace=wrap;html=1;" parent="1" vertex="1">
          <mxGeometry x="105" y="610" width="120" height="60" as="geometry" />
        </mxCell>
        <mxCell id="Q-evfRpUln7bc_nMk59B-5" value="Buildings" style="rounded=0;whiteSpace=wrap;html=1;" parent="1" vertex="1">
          <mxGeometry x="50" y="117.86000000000001" width="120" height="60" as="geometry" />
        </mxCell>
        <mxCell id="Q-evfRpUln7bc_nMk59B-6" value="&lt;u&gt;ID&lt;/u&gt;" style="ellipse;whiteSpace=wrap;html=1;" parent="1" vertex="1">
          <mxGeometry x="520" y="20" width="60" height="40" as="geometry" />
        </mxCell>
        <mxCell id="Q-evfRpUln7bc_nMk59B-7" value="name" style="ellipse;whiteSpace=wrap;html=1;" parent="1" vertex="1">
          <mxGeometry x="590" y="20" width="60" height="40" as="geometry" />
        </mxCell>
        <mxCell id="Q-evfRpUln7bc_nMk59B-8" value="birthday" style="ellipse;whiteSpace=wrap;html=1;" parent="1" vertex="1">
          <mxGeometry x="660" y="20" width="60" height="40" as="geometry" />
        </mxCell>
        <mxCell id="Q-evfRpUln7bc_nMk59B-9" value="" style="endArrow=none;html=1;rounded=0;entryX=0.5;entryY=1;entryDx=0;entryDy=0;" parent="1" source="Q-evfRpUln7bc_nMk59B-1" target="Q-evfRpUln7bc_nMk59B-6" edge="1">
          <mxGeometry width="50" height="50" relative="1" as="geometry">
            <mxPoint x="770" y="260" as="sourcePoint" />
            <mxPoint x="820" y="210" as="targetPoint" />
          </mxGeometry>
        </mxCell>
        <mxCell id="Q-evfRpUln7bc_nMk59B-10" value="" style="endArrow=none;html=1;rounded=0;" parent="1" source="Q-evfRpUln7bc_nMk59B-1" target="Q-evfRpUln7bc_nMk59B-7" edge="1">
          <mxGeometry width="50" height="50" relative="1" as="geometry">
            <mxPoint x="595" y="150" as="sourcePoint" />
            <mxPoint x="645" y="100" as="targetPoint" />
          </mxGeometry>
        </mxCell>
        <mxCell id="Q-evfRpUln7bc_nMk59B-12" value="" style="endArrow=none;html=1;rounded=0;entryX=0.5;entryY=1;entryDx=0;entryDy=0;" parent="1" source="Q-evfRpUln7bc_nMk59B-1" target="Q-evfRpUln7bc_nMk59B-8" edge="1">
          <mxGeometry width="50" height="50" relative="1" as="geometry">
            <mxPoint x="770" y="260" as="sourcePoint" />
            <mxPoint x="820" y="210" as="targetPoint" />
          </mxGeometry>
        </mxCell>
        <mxCell id="Q-evfRpUln7bc_nMk59B-13" value="&lt;u&gt;name&lt;/u&gt;" style="ellipse;whiteSpace=wrap;html=1;" parent="1" vertex="1">
          <mxGeometry x="310" y="300" width="50" height="40" as="geometry" />
        </mxCell>
        <mxCell id="Q-evfRpUln7bc_nMk59B-15" value="type" style="ellipse;whiteSpace=wrap;html=1;" parent="1" vertex="1">
          <mxGeometry x="375" y="300" width="60" height="40" as="geometry" />
        </mxCell>
        <mxCell id="Q-evfRpUln7bc_nMk59B-16" value="size" style="ellipse;whiteSpace=wrap;html=1;" parent="1" vertex="1">
          <mxGeometry x="445" y="300" width="50" height="40" as="geometry" />
        </mxCell>
        <mxCell id="Q-evfRpUln7bc_nMk59B-18" value="" style="endArrow=none;html=1;rounded=0;entryX=0.36;entryY=1;entryDx=0;entryDy=0;entryPerimeter=0;exitX=0.75;exitY=0;exitDx=0;exitDy=0;" parent="1" source="I4FHuijo6DTBtjuE6YuG-3" target="Q-evfRpUln7bc_nMk59B-16" edge="1">
          <mxGeometry width="50" height="50" relative="1" as="geometry">
            <mxPoint x="410" y="367.5" as="sourcePoint" />
            <mxPoint x="390" y="480" as="targetPoint" />
          </mxGeometry>
        </mxCell>
        <mxCell id="Q-evfRpUln7bc_nMk59B-19" value="" style="endArrow=none;html=1;rounded=0;exitX=0.5;exitY=0;exitDx=0;exitDy=0;" parent="1" source="I4FHuijo6DTBtjuE6YuG-3" target="Q-evfRpUln7bc_nMk59B-15" edge="1">
          <mxGeometry width="50" height="50" relative="1" as="geometry">
            <mxPoint x="371.24832609045495" y="367.5" as="sourcePoint" />
            <mxPoint x="390" y="480" as="targetPoint" />
          </mxGeometry>
        </mxCell>
        <mxCell id="Q-evfRpUln7bc_nMk59B-21" value="" style="endArrow=none;html=1;rounded=0;entryX=0.5;entryY=1;entryDx=0;entryDy=0;exitX=0.25;exitY=0;exitDx=0;exitDy=0;" parent="1" source="I4FHuijo6DTBtjuE6YuG-3" target="Q-evfRpUln7bc_nMk59B-13" edge="1">
          <mxGeometry width="50" height="50" relative="1" as="geometry">
            <mxPoint x="342" y="360" as="sourcePoint" />
            <mxPoint x="390" y="480" as="targetPoint" />
          </mxGeometry>
        </mxCell>
        <mxCell id="Q-evfRpUln7bc_nMk59B-22" value="&lt;u&gt;SSN&lt;/u&gt;" style="ellipse;whiteSpace=wrap;html=1;" parent="1" vertex="1">
          <mxGeometry x="40" y="700" width="70" height="40" as="geometry" />
        </mxCell>
        <mxCell id="Q-evfRpUln7bc_nMk59B-23" value="popularity" style="ellipse;whiteSpace=wrap;html=1;" parent="1" vertex="1">
          <mxGeometry x="690" y="692.5" width="60" height="35" as="geometry" />
        </mxCell>
        <mxCell id="Q-evfRpUln7bc_nMk59B-24" value="&lt;u&gt;name&lt;/u&gt;" style="ellipse;whiteSpace=wrap;html=1;" parent="1" vertex="1">
          <mxGeometry x="540" y="695" width="60" height="30" as="geometry" />
        </mxCell>
        <mxCell id="Q-evfRpUln7bc_nMk59B-26" value="flavor" style="ellipse;whiteSpace=wrap;html=1;" parent="1" vertex="1">
          <mxGeometry x="610" y="695" width="70" height="30" as="geometry" />
        </mxCell>
        <mxCell id="Q-evfRpUln7bc_nMk59B-27" value="" style="endArrow=none;html=1;rounded=0;entryX=0.5;entryY=1;entryDx=0;entryDy=0;exitX=0.5;exitY=0;exitDx=0;exitDy=0;" parent="1" source="Q-evfRpUln7bc_nMk59B-38" target="Q-evfRpUln7bc_nMk59B-4" edge="1">
          <mxGeometry width="50" height="50" relative="1" as="geometry">
            <mxPoint x="350" y="600" as="sourcePoint" />
            <mxPoint x="400" y="550" as="targetPoint" />
          </mxGeometry>
        </mxCell>
        <mxCell id="Q-evfRpUln7bc_nMk59B-28" value="" style="endArrow=none;html=1;rounded=0;exitX=0.5;exitY=0;exitDx=0;exitDy=0;entryX=0.25;entryY=1;entryDx=0;entryDy=0;" parent="1" source="Q-evfRpUln7bc_nMk59B-22" target="Q-evfRpUln7bc_nMk59B-4" edge="1">
          <mxGeometry width="50" height="50" relative="1" as="geometry">
            <mxPoint x="350" y="600" as="sourcePoint" />
            <mxPoint x="400" y="550" as="targetPoint" />
          </mxGeometry>
        </mxCell>
        <mxCell id="Q-evfRpUln7bc_nMk59B-29" value="" style="endArrow=none;html=1;rounded=0;entryX=0.75;entryY=1;entryDx=0;entryDy=0;exitX=0.5;exitY=0;exitDx=0;exitDy=0;" parent="1" source="Q-evfRpUln7bc_nMk59B-23" target="I4FHuijo6DTBtjuE6YuG-4" edge="1">
          <mxGeometry width="50" height="50" relative="1" as="geometry">
            <mxPoint x="830" y="480" as="sourcePoint" />
            <mxPoint x="660" y="670" as="targetPoint" />
          </mxGeometry>
        </mxCell>
        <mxCell id="Q-evfRpUln7bc_nMk59B-30" value="" style="endArrow=none;html=1;rounded=0;entryX=0.5;entryY=1;entryDx=0;entryDy=0;exitX=0.5;exitY=0;exitDx=0;exitDy=0;" parent="1" source="Q-evfRpUln7bc_nMk59B-26" target="I4FHuijo6DTBtjuE6YuG-4" edge="1">
          <mxGeometry width="50" height="50" relative="1" as="geometry">
            <mxPoint x="830" y="480" as="sourcePoint" />
            <mxPoint x="630" y="670" as="targetPoint" />
          </mxGeometry>
        </mxCell>
        <mxCell id="Q-evfRpUln7bc_nMk59B-32" value="" style="endArrow=none;html=1;rounded=0;exitX=0.25;exitY=1;exitDx=0;exitDy=0;" parent="1" source="I4FHuijo6DTBtjuE6YuG-4" target="Q-evfRpUln7bc_nMk59B-24" edge="1">
          <mxGeometry width="50" height="50" relative="1" as="geometry">
            <mxPoint x="600" y="670" as="sourcePoint" />
            <mxPoint x="880" y="430" as="targetPoint" />
          </mxGeometry>
        </mxCell>
        <mxCell id="Q-evfRpUln7bc_nMk59B-35" value="area" style="ellipse;whiteSpace=wrap;html=1;" parent="1" vertex="1">
          <mxGeometry x="155" y="17.5" width="65" height="47.5" as="geometry" />
        </mxCell>
        <mxCell id="Q-evfRpUln7bc_nMk59B-36" value="&lt;u&gt;address&lt;/u&gt;" style="ellipse;whiteSpace=wrap;html=1;" parent="1" vertex="1">
          <mxGeometry x="80" y="20" width="60" height="45" as="geometry" />
        </mxCell>
        <mxCell id="Q-evfRpUln7bc_nMk59B-37" value="salary" style="ellipse;whiteSpace=wrap;html=1;" parent="1" vertex="1">
          <mxGeometry x="210" y="700" width="70" height="37.5" as="geometry" />
        </mxCell>
        <mxCell id="Q-evfRpUln7bc_nMk59B-38" value="name" style="ellipse;whiteSpace=wrap;html=1;" parent="1" vertex="1">
          <mxGeometry x="130" y="695" width="70" height="45" as="geometry" />
        </mxCell>
        <mxCell id="Q-evfRpUln7bc_nMk59B-39" value="" style="endArrow=none;html=1;rounded=0;entryX=0.75;entryY=1;entryDx=0;entryDy=0;exitX=0.5;exitY=0;exitDx=0;exitDy=0;" parent="1" source="Q-evfRpUln7bc_nMk59B-37" target="Q-evfRpUln7bc_nMk59B-4" edge="1">
          <mxGeometry width="50" height="50" relative="1" as="geometry">
            <mxPoint x="290" y="600" as="sourcePoint" />
            <mxPoint x="340" y="550" as="targetPoint" />
          </mxGeometry>
        </mxCell>
        <mxCell id="Q-evfRpUln7bc_nMk59B-40" value="" style="endArrow=none;html=1;rounded=0;entryX=0.75;entryY=0;entryDx=0;entryDy=0;exitX=0.5;exitY=1;exitDx=0;exitDy=0;" parent="1" source="Q-evfRpUln7bc_nMk59B-35" target="Q-evfRpUln7bc_nMk59B-5" edge="1">
          <mxGeometry width="50" height="50" relative="1" as="geometry">
            <mxPoint x="20" y="107.86000000000001" as="sourcePoint" />
            <mxPoint x="70" y="57.860000000000014" as="targetPoint" />
          </mxGeometry>
        </mxCell>
        <mxCell id="Q-evfRpUln7bc_nMk59B-41" value="" style="endArrow=none;html=1;rounded=0;entryX=0.5;entryY=0;entryDx=0;entryDy=0;" parent="1" source="Q-evfRpUln7bc_nMk59B-36" target="Q-evfRpUln7bc_nMk59B-5" edge="1">
          <mxGeometry width="50" height="50" relative="1" as="geometry">
            <mxPoint x="20" y="107.86000000000001" as="sourcePoint" />
            <mxPoint x="70" y="90" as="targetPoint" />
          </mxGeometry>
        </mxCell>
        <mxCell id="57vs2m7HRn72SCq4mYg--1" value="order" style="rhombus;whiteSpace=wrap;html=1;rotation=0;" parent="1" vertex="1">
          <mxGeometry x="580" y="227.5" width="100" height="50" as="geometry" />
        </mxCell>
        <mxCell id="57vs2m7HRn72SCq4mYg--3" value="" style="endArrow=none;html=1;rounded=0;entryX=0.5;entryY=1;entryDx=0;entryDy=0;exitX=0.5;exitY=0;exitDx=0;exitDy=0;" parent="1" source="57vs2m7HRn72SCq4mYg--1" target="Q-evfRpUln7bc_nMk59B-1" edge="1">
          <mxGeometry width="50" height="50" relative="1" as="geometry">
            <mxPoint x="640" y="220" as="sourcePoint" />
            <mxPoint x="410" y="480" as="targetPoint" />
          </mxGeometry>
        </mxCell>
        <mxCell id="57vs2m7HRn72SCq4mYg--4" value="" style="endArrow=none;html=1;rounded=0;entryX=0.5;entryY=1;entryDx=0;entryDy=0;exitX=0.5;exitY=0;exitDx=0;exitDy=0;" parent="1" source="I4FHuijo6DTBtjuE6YuG-4" target="57vs2m7HRn72SCq4mYg--1" edge="1">
          <mxGeometry width="50" height="50" relative="1" as="geometry">
            <mxPoint x="630" y="610" as="sourcePoint" />
            <mxPoint x="370" y="600" as="targetPoint" />
          </mxGeometry>
        </mxCell>
        <mxCell id="57vs2m7HRn72SCq4mYg--5" value="date" style="ellipse;whiteSpace=wrap;html=1;rotation=0;" parent="1" vertex="1">
          <mxGeometry x="720" y="236.25" width="90" height="32.5" as="geometry" />
        </mxCell>
        <mxCell id="57vs2m7HRn72SCq4mYg--6" value="" style="endArrow=none;html=1;rounded=0;entryX=1;entryY=0.5;entryDx=0;entryDy=0;exitX=0;exitY=0.5;exitDx=0;exitDy=0;" parent="1" source="57vs2m7HRn72SCq4mYg--5" target="57vs2m7HRn72SCq4mYg--1" edge="1">
          <mxGeometry width="50" height="50" relative="1" as="geometry">
            <mxPoint x="523.125" y="279.6770871885029" as="sourcePoint" />
            <mxPoint x="360" y="620" as="targetPoint" />
          </mxGeometry>
        </mxCell>
        <mxCell id="57vs2m7HRn72SCq4mYg--8" value="cook" style="rhombus;whiteSpace=wrap;html=1;rotation=0;" parent="1" vertex="1">
          <mxGeometry x="360" y="620" width="90" height="40" as="geometry" />
        </mxCell>
        <mxCell id="57vs2m7HRn72SCq4mYg--9" value="" style="endArrow=none;html=1;rounded=0;entryX=0;entryY=0.5;entryDx=0;entryDy=0;exitX=1;exitY=0.5;exitDx=0;exitDy=0;" parent="1" source="Q-evfRpUln7bc_nMk59B-4" target="57vs2m7HRn72SCq4mYg--8" edge="1">
          <mxGeometry width="50" height="50" relative="1" as="geometry">
            <mxPoint x="480" y="560" as="sourcePoint" />
            <mxPoint x="530" y="510" as="targetPoint" />
          </mxGeometry>
        </mxCell>
        <mxCell id="57vs2m7HRn72SCq4mYg--10" value="" style="endArrow=none;html=1;rounded=0;entryX=1;entryY=0.5;entryDx=0;entryDy=0;exitX=0;exitY=0.5;exitDx=0;exitDy=0;" parent="1" source="I4FHuijo6DTBtjuE6YuG-4" target="57vs2m7HRn72SCq4mYg--8" edge="1">
          <mxGeometry width="50" height="50" relative="1" as="geometry">
            <mxPoint x="570" y="640" as="sourcePoint" />
            <mxPoint x="350" y="520" as="targetPoint" />
          </mxGeometry>
        </mxCell>
        <mxCell id="57vs2m7HRn72SCq4mYg--15" value="" style="endArrow=none;html=1;rounded=0;entryX=0.5;entryY=1;entryDx=0;entryDy=0;exitX=0.25;exitY=0;exitDx=0;exitDy=0;" parent="1" source="I4FHuijo6DTBtjuE6YuG-4" target="I4FHuijo6DTBtjuE6YuG-5" edge="1">
          <mxGeometry width="50" height="50" relative="1" as="geometry">
            <mxPoint x="630" y="610" as="sourcePoint" />
            <mxPoint x="470" y="540" as="targetPoint" />
          </mxGeometry>
        </mxCell>
        <mxCell id="57vs2m7HRn72SCq4mYg--17" value="employee" style="rhombus;whiteSpace=wrap;html=1;rotation=0;" parent="1" vertex="1">
          <mxGeometry x="155" y="500" width="100" height="40" as="geometry" />
        </mxCell>
        <mxCell id="57vs2m7HRn72SCq4mYg--18" value="" style="endArrow=none;html=1;rounded=0;entryX=0.5;entryY=1;entryDx=0;entryDy=0;exitX=0.5;exitY=0;exitDx=0;exitDy=0;" parent="1" source="Q-evfRpUln7bc_nMk59B-4" target="57vs2m7HRn72SCq4mYg--17" edge="1">
          <mxGeometry width="50" height="50" relative="1" as="geometry">
            <mxPoint x="470" y="630" as="sourcePoint" />
            <mxPoint x="311.32117818244774" y="560.9576022144495" as="targetPoint" />
          </mxGeometry>
        </mxCell>
        <mxCell id="57vs2m7HRn72SCq4mYg--20" value="" style="endArrow=classic;html=1;rounded=0;entryX=0.25;entryY=1;entryDx=0;entryDy=0;exitX=0.5;exitY=0;exitDx=0;exitDy=0;" parent="1" source="57vs2m7HRn72SCq4mYg--17" target="I4FHuijo6DTBtjuE6YuG-3" edge="1">
          <mxGeometry width="50" height="50" relative="1" as="geometry">
            <mxPoint x="260" y="500" as="sourcePoint" />
            <mxPoint x="320" y="427.5" as="targetPoint" />
          </mxGeometry>
        </mxCell>
        <mxCell id="57vs2m7HRn72SCq4mYg--22" value="" style="endArrow=none;html=1;rounded=0;entryX=0.5;entryY=1;entryDx=0;entryDy=0;exitX=0;exitY=0.5;exitDx=0;exitDy=0;" parent="1" source="I4FHuijo6DTBtjuE6YuG-3" target="I4FHuijo6DTBtjuE6YuG-2" edge="1">
          <mxGeometry width="50" height="50" relative="1" as="geometry">
            <mxPoint x="290" y="397.5" as="sourcePoint" />
            <mxPoint x="155" y="318.75" as="targetPoint" />
          </mxGeometry>
        </mxCell>
        <mxCell id="I4FHuijo6DTBtjuE6YuG-2" value="locate" style="shape=rhombus;double=1;perimeter=rhombusPerimeter;whiteSpace=wrap;html=1;align=center;" vertex="1" parent="1">
          <mxGeometry x="110" y="268.75" width="120" height="60" as="geometry" />
        </mxCell>
        <mxCell id="I4FHuijo6DTBtjuE6YuG-3" value="Restaurants" style="shape=ext;margin=3;double=1;whiteSpace=wrap;html=1;align=center;" vertex="1" parent="1">
          <mxGeometry x="300" y="370" width="120" height="50" as="geometry" />
        </mxCell>
        <mxCell id="I4FHuijo6DTBtjuE6YuG-4" value="Dishes" style="shape=ext;margin=3;double=1;whiteSpace=wrap;html=1;align=center;" vertex="1" parent="1">
          <mxGeometry x="570" y="615" width="110" height="50" as="geometry" />
        </mxCell>
        <mxCell id="I4FHuijo6DTBtjuE6YuG-5" value="offer" style="shape=rhombus;double=1;perimeter=rhombusPerimeter;whiteSpace=wrap;html=1;align=center;" vertex="1" parent="1">
          <mxGeometry x="380" y="490" width="120" height="60" as="geometry" />
        </mxCell>
        <mxCell id="I4FHuijo6DTBtjuE6YuG-7" value="" style="verticalLabelPosition=bottom;verticalAlign=top;html=1;shape=mxgraph.basic.arc;startAngle=0.6762081911747834;endAngle=0.22741638234956674;" vertex="1" parent="1">
          <mxGeometry x="400" y="420" width="20" height="20" as="geometry" />
        </mxCell>
        <mxCell id="I4FHuijo6DTBtjuE6YuG-11" value="" style="endArrow=none;html=1;rounded=0;entryX=0.4;entryY=0;entryDx=0;entryDy=0;exitX=0.5;exitY=0;exitDx=0;exitDy=0;entryPerimeter=0;" edge="1" parent="1" source="I4FHuijo6DTBtjuE6YuG-5" target="I4FHuijo6DTBtjuE6YuG-7">
          <mxGeometry width="50" height="50" relative="1" as="geometry">
            <mxPoint x="320" y="450" as="sourcePoint" />
            <mxPoint x="370" y="400" as="targetPoint" />
          </mxGeometry>
        </mxCell>
        <mxCell id="I4FHuijo6DTBtjuE6YuG-14" value="" style="endArrow=none;html=1;rounded=0;entryX=0;entryY=0;entryDx=0;entryDy=0;exitX=0.367;exitY=0.005;exitDx=0;exitDy=0;exitPerimeter=0;" edge="1" parent="1" source="I4FHuijo6DTBtjuE6YuG-15" target="I4FHuijo6DTBtjuE6YuG-2">
          <mxGeometry width="50" height="50" relative="1" as="geometry">
            <mxPoint x="300" y="200" as="sourcePoint" />
            <mxPoint x="370" y="400" as="targetPoint" />
          </mxGeometry>
        </mxCell>
        <mxCell id="I4FHuijo6DTBtjuE6YuG-15" value="" style="verticalLabelPosition=bottom;verticalAlign=top;html=1;shape=mxgraph.basic.arc;startAngle=0.7798832419121944;endAngle=0.22011675808780556;" vertex="1" parent="1">
          <mxGeometry x="100" y="177.86" width="30" height="30" as="geometry" />
        </mxCell>
      </root>
    </mxGraphModel>
  </diagram>
</mxfile>
